<svg xmlns="http://www.w3.org/2000/svg" viewBox="0 0 48 48" fill="none">
  <rect width="48" height="48" rx="12" fill="url(#grad)"/>
  <path d="M24 10C22.5 10 21.5 11 21.5 12.5V20.5H13.5C12 20.5 11 21.5 11 23C11 24.5 12 25.5 13.5 25.5H21.5V33.5C21.5 35 22.5 36 24 36C25.5 36 26.5 35 26.5 33.5V25.5H34.5C36 25.5 37 24.5 37 23C37 21.5 36 20.5 34.5 20.5H26.5V12.5C26.5 11 25.5 10 24 10Z" fill="white"/>
  <circle cx="24" cy="23" r="3" fill="url(#grad)" opacity="0.6"/>
  <defs>
    <linearGradient id="grad" x1="0" y1="0" x2="48" y2="48" gradientUnits="userSpaceOnUse">
      <stop stop-color="#1D9E75"/>
      <stop offset="1" stop-color="#0F6E56"/>
    </linearGradient>
  </defs>
</svg>
